<?xml version="1.0" encoding="utf-8"?>
<!-- Generator: Adobe Illustrator 24.0.1, SVG Export Plug-In . SVG Version: 6.00 Build 0)  -->
<svg version="1.1" id="Layer_1" xmlns="http://www.w3.org/2000/svg" xmlns:xlink="http://www.w3.org/1999/xlink" x="0px" y="0px"
	 viewBox="0 0 250 250" style="enable-background:new 0 0 250 250;" xml:space="preserve">
<style type="text/css">
	.st0{fill:none;stroke:#FFFFFF;stroke-width:12;stroke-miterlimit:10;}
	.st1{fill:#FFFFFF;}
	.st2{font-family:'MyriadPro-BoldCond';}
	.st3{font-size:131.1532px;}
</style>
<g>
	<path class="st0" d="M242.9,241.6c0,1.1-0.9,2-2,2H9.1c-1.1,0-2-0.9-2-2V15.7c0-1.1,0.9-2,2-2h231.8c1.1,0,2,0.9,2,2V241.6z"/>
</g>
<text transform="matrix(1 0 0 1 41.491 188.9046)" class="st1 st2 st3">404</text>
<g>
	<path class="st0" d="M242.9,52.4c0,1.1-0.9,2-2,2H9.1c-1.1,0-2-0.9-2-2V15.7c0-1.1,0.9-2,2-2h231.8c1.1,0,2,0.9,2,2V52.4z"/>
</g>
<path class="st1" d="M187,34.5l8.3,4.8c-2.6,4.6-8.6,6.2-13.2,3.5c-4.6-2.6-6.2-8.6-3.5-13.2c2.6-4.6,8.6-6.2,13.2-3.5
	c1.5,0.8,2.7,2.1,3.5,3.5L187,34.5z"/>
<circle class="st1" cx="202.9" cy="34.9" r="4.1"/>
<circle class="st1" cx="213.7" cy="34.9" r="4.1"/>
<circle class="st1" cx="224.5" cy="34.9" r="4.1"/>
<g>
	<polygon class="st1" points="25.3,218.3 27.5,222.1 29.7,225.9 25.3,225.9 20.9,225.9 23.1,222.1 	"/>
	<polygon class="st1" points="34.1,218.3 36.3,222.1 38.5,225.9 34.1,225.9 29.7,225.9 31.9,222.1 	"/>
	<polygon class="st1" points="29.7,210.4 31.9,214.2 34.1,218 29.7,218 25.3,218 27.5,214.2 	"/>
</g>
</svg>
