<?xml version="1.0" encoding="utf-8"?>
<!-- Generator: Adobe Illustrator 24.0.1, SVG Export Plug-In . SVG Version: 6.00 Build 0)  -->
<svg version="1.1" id="Layer_1" xmlns="http://www.w3.org/2000/svg" xmlns:xlink="http://www.w3.org/1999/xlink" x="0px" y="0px"
	 viewBox="0 0 90 72" style="enable-background:new 0 0 90 72;" xml:space="preserve">
<style type="text/css">
	.st0{fill:#FFFFFF;stroke:#FFFFFF;stroke-miterlimit:10;}
</style>
<title>Group 3</title>
<desc>Created with Sketch.</desc>
<g id="Page-1">
	<g id="Group-3">
		<g id="mbri-cart-add">
			<path id="Shape" class="st0" d="M76.2,0c-7.4,0-13.5,6.1-13.5,13.5S68.8,27,76.2,27c7.4,0,13.5-6.1,13.5-13.5S83.6,0,76.2,0z
				 M76.2,3C82,3,86.7,7.7,86.7,13.5S82,24,76.2,24c-5.8,0-10.5-4.7-10.5-10.5S70.4,3,76.2,3z M76.2,6c-0.8,0-1.5,0.7-1.5,1.5V12
				h-4.5c-0.8,0-1.5,0.7-1.5,1.5s0.7,1.5,1.5,1.5h4.5v4.5c0,0.8,0.7,1.5,1.5,1.5c0.8,0,1.5-0.7,1.5-1.5V15h4.5
				c0.8,0,1.5-0.7,1.5-1.5S83,12,82.2,12h-4.5V7.5C77.7,6.7,77,6,76.2,6z M31.4,39h38.9c0.8,0,1.5,0.7,1.5,1.5S71.1,42,70.2,42H31.4
				c-0.8,0-1.5-0.7-1.5-1.5S30.5,39,31.4,39z M28.4,27h35.9c0.8,0,1.5,0.7,1.5,1.5S65.1,30,64.3,30H28.4c-0.8,0-1.5-0.7-1.5-1.5
				S27.6,27,28.4,27z M64.3,57c-4.1,0-7.5,3.4-7.5,7.5s3.4,7.5,7.5,7.5s7.5-3.4,7.5-7.5S68.4,57,64.3,57z M64.3,60
				c2.5,0,4.5,2,4.5,4.5s-2,4.5-4.5,4.5s-4.5-2-4.5-4.5S61.8,60,64.3,60z M34.4,57c-4.1,0-7.5,3.4-7.5,7.5s3.4,7.5,7.5,7.5
				s7.5-3.4,7.5-7.5S38.5,57,34.4,57z M34.4,60c2.5,0,4.5,2,4.5,4.5s-2,4.5-4.5,4.5s-4.5-2-4.5-4.5S31.9,60,34.4,60z M1.5,3
				c-2,0-2,3,0,3h10.7c0.2,1.1,1.9,9.2,3.9,18.7c1.1,5.1,2.2,10.2,3,14.3c0.9,4.1,1.5,7,1.8,7.9c0.4,1.5,0.8,3.2,1.9,4.6
				c1.1,1.5,3,2.5,5.6,2.5h41.8c2.6,0,4.5-1,5.6-2.5c1.1-1.5,1.5-3.2,1.9-4.6c0.3-1,0.7-3.3,1.2-6.2c0.5-2.9,1.2-6.3,1.8-8.8
				c0.5-1.8-2.6-2.6-2.9-0.7c-0.6,2.7-1.3,6-1.8,9c-0.6,2.9-1,5.5-1.2,6c-0.4,1.5-0.8,2.8-1.4,3.6c-0.6,0.8-1.3,1.3-3.2,1.3H28.4
				c-1.9,0-2.6-0.5-3.2-1.3c-0.6-0.8-1-2.1-1.4-3.6c-0.1-0.6-0.8-3.7-1.7-7.8c-0.9-4.1-2-9.2-3-14.3C17,13.9,14.9,4.2,14.9,4.2
				C14.8,3.5,14.2,3,13.5,3L1.5,3z M25.4,15c-2,0-2,3,0,3h29.9c2,0,2-3,0-3H25.4z"/>
		</g>
	</g>
</g>
</svg>
