<?xml version="1.0" encoding="utf-8"?>
<!-- Generator: Adobe Illustrator 24.0.1, SVG Export Plug-In . SVG Version: 6.00 Build 0)  -->
<svg version="1.1" id="Layer_1" xmlns="http://www.w3.org/2000/svg" xmlns:xlink="http://www.w3.org/1999/xlink" x="0px" y="0px"
	 viewBox="0 0 30 30" style="enable-background:new 0 0 30 30;" xml:space="preserve">
<style type="text/css">
	.st0{fill:none;stroke:#000000;stroke-width:2;stroke-linecap:round;stroke-miterlimit:10;}
	.st1{fill:none;stroke:#000000;stroke-linecap:round;stroke-miterlimit:10;}
	.st2{fill:#F5828C;}
</style>
<ellipse class="st0" cx="15" cy="15" rx="14" ry="13.6"/>
<path class="st1" d="M15,18.9c0,1.8-1.4,3.2-3,3.2s-3-1.4-3-3.2"/>
<path class="st1" d="M21,18.9c0,1.8-1.4,3.2-3,3.2c-1.7,0-3-1.4-3-3.2"/>
<path class="st1" d="M7.5,7.5c0,0,4.5,0.3,4.8,1.6c0.3,1.3-3.8,3.9-3.8,3.9"/>
<path class="st1" d="M7.5,7.5c0,0,3.9,0.4,4.8,1.6c0.1,1.2-3.8,3.9-3.8,3.9"/>
<path class="st1" d="M22.2,7.5c0,0-3.9,0.4-4.8,1.6c-0.1,1.2,3.8,3.9,3.8,3.9"/>
<ellipse class="st2" cx="4.5" cy="15.7" rx="3.9" ry="1.3"/>
<ellipse class="st2" cx="25.4" cy="15.3" rx="3.9" ry="1.3"/>
</svg>
