<?xml version="1.0" encoding="utf-8"?>
<!-- Generator: Adobe Illustrator 16.0.0, SVG Export Plug-In . SVG Version: 6.00 Build 0)  -->
<!DOCTYPE svg PUBLIC "-//W3C//DTD SVG 1.1//EN" "http://www.w3.org/Graphics/SVG/1.1/DTD/svg11.dtd">
<svg version="1.1" id="Layer_1" xmlns="http://www.w3.org/2000/svg" xmlns:xlink="http://www.w3.org/1999/xlink" x="0px" y="0px"
	 width="31px" height="31px" viewBox="0 0 31 31" enable-background="new 0 0 31 31" xml:space="preserve">
<path fill="#FFFFFF" d="M13,29V19h-3v-4h3.093l0.226-4.445c0,0-0.319-5.304,8.681-3.723v3.771c0,0-4.119-1.241-4.264,1.489
	L17.497,15h3.884l-0.579,4h-3.28l-0.024,10.418l8.302,0.075c0,0,3.201-1.104,3.201-3.979V4.131C29,4.131,28.347,1,25.616,1H4.579
	C4.579,1,1,1.515,1,4.532v20.602C1,25.134,0.697,27,4.363,29H13z"/>
</svg>
