<?xml version="1.0" encoding="utf-8"?>
<!-- Generator: Adobe Illustrator 24.0.1, SVG Export Plug-In . SVG Version: 6.00 Build 0)  -->
<svg version="1.1" id="Layer_1" xmlns="http://www.w3.org/2000/svg" xmlns:xlink="http://www.w3.org/1999/xlink" x="0px" y="0px"
	 viewBox="0 0 30 30" style="enable-background:new 0 0 30 30;" xml:space="preserve">
<style type="text/css">
	.st0{fill:none;stroke:#FFFFFF;stroke-miterlimit:10;}
</style>
<g>
	<g>
		<g>
			<path class="st0" d="M29.5,15c0,3.9-1.5,7.4-4,10c-2.6,2.8-6.4,4.5-10.5,4.5c-4.1,0-7.9-1.7-10.5-4.5c-2.5-2.6-4-6.1-4-10
				c0-3.9,1.5-7.4,3.9-10C7.1,2.2,10.9,0.4,15,0.4c4.1,0,7.9,1.8,10.5,4.6C28,7.6,29.5,11.1,29.5,15z"/>
			<ellipse class="st0" cx="15" cy="15" rx="8.6" ry="14.5"/>
		</g>
		<path class="st0" d="M25.5,25c-2.6,2.8-6.4,4.5-10.5,4.5c-4.1,0-7.9-1.7-10.5-4.5c0.9-1,2-1.8,3.1-2.5c2.2-1.3,4.7-2,7.3-2
			c2.7,0,5.2,0.7,7.4,2C23.5,23.2,24.6,24,25.5,25z"/>
		<path class="st0" d="M25.5,5c-0.9,1-2,1.8-3.1,2.5c-2.2,1.3-4.7,2-7.4,2c-2.7,0-5.2-0.7-7.4-2C6.5,6.8,5.4,6,4.5,5
			C7.1,2.2,22.9,2.2,25.5,5z"/>
	</g>
	<line class="st0" x1="15" y1="0.4" x2="15" y2="29.5"/>
	<line class="st0" x1="29.5" y1="15" x2="0.5" y2="15"/>
</g>
</svg>
