<?xml version="1.0" encoding="utf-8"?>
<!-- Generator: Adobe Illustrator 24.0.1, SVG Export Plug-In . SVG Version: 6.00 Build 0)  -->
<svg version="1.1" id="Layer_1" xmlns="http://www.w3.org/2000/svg" xmlns:xlink="http://www.w3.org/1999/xlink" x="0px" y="0px"
	 viewBox="0 0 30 30" style="enable-background:new 0 0 30 30;" xml:space="preserve">
<style type="text/css">
	.st0{fill:#FFFFFF;stroke:#000000;stroke-miterlimit:10;}
	.st1{fill:none;stroke:#000000;stroke-miterlimit:10;}
	.st2{fill:#F7290D;stroke:#000000;stroke-width:0.5;stroke-miterlimit:10;}
	.st3{fill:#63B731;stroke:#000000;stroke-width:0.5;stroke-miterlimit:10;}
</style>
<path class="st0" d="M8.5,3.4c0,0,6.3-7.1,14.1,1.4c3.7,4.4,5.3,6.5,6.5,8.8c1.8,3.8-2,8.3-8.8,4c-4-2.1-6.9-1.5-9.3-0.2
	c-2.2,1-10.8,6.1-10.3-1.3C1,11.2,6.9,4.8,8.5,3.4z"/>
<path class="st1" d="M15,16.4c0,0-1.8,3.4,0,6.4s0.4,7.2,0.4,7.2"/>
<g>
	<rect x="20.9" y="8.5" width="1.2" height="4.9"/>
	<rect x="20.9" y="8.5" transform="matrix(-1.836970e-16 1 -1 -1.836970e-16 32.5 -10.5417)" width="1.2" height="4.9"/>
</g>
<circle class="st2" cx="12.6" cy="6.9" r="1.9"/>
<circle class="st3" cx="7.3" cy="13.2" r="2.2"/>
</svg>
