<?xml version="1.0" encoding="utf-8"?>
<!-- Generator: Adobe Illustrator 24.0.1, SVG Export Plug-In . SVG Version: 6.00 Build 0)  -->
<svg version="1.1" id="Layer_1" xmlns="http://www.w3.org/2000/svg" xmlns:xlink="http://www.w3.org/1999/xlink" x="0px" y="0px"
	 viewBox="0 0 30 30" style="enable-background:new 0 0 30 30;" xml:space="preserve">
<style type="text/css">
	.st0{fill:#FFFFFF;}
</style>
<image style="display:none;overflow:visible;" width="512" height="512" xlink:href="1384033.png"  transform="matrix(5.859375e-02 0 0 5.859375e-02 0 0)">
</image>
<g>
	<path class="st0" d="M30,4c0,0-1.4,3.5-3.1,3.8c0,0,0,0,0,0c0,0.9-0.2,30.8-26.9,18.6c0,0,7.5,1.3,9.1-3c0,0-5.3-0.8-5.7-4.9
		c0,0,2.2,0.7,2.8,0c0,0-5.2-1.8-5.2-7.7c0,0,1.8,1.7,2.7,1.1c0,0-4.3-3.7-1.9-10.1c0,0,7.2,8.2,13,8c-0.2-0.7-0.3-1.4-0.3-2.1
		c0-4,2.7-7.2,6.1-7.2c1.7,0,3.3,0.9,4.4,2.2l0,0c0,0,3.4-0.5,3.9-1.4c0.5-0.8-0.9,3-2.1,3.9C27.8,5,29.6,4.4,30,4z"/>
</g>
</svg>
